<?xml version="1.0" encoding="UTF-8" standalone="no"?>
<svg
   xmlns:dc="http://purl.org/dc/elements/1.1/"
   xmlns:cc="http://creativecommons.org/ns#"
   xmlns:rdf="http://www.w3.org/1999/02/22-rdf-syntax-ns#"
   xmlns:svg="http://www.w3.org/2000/svg"
   xmlns="http://www.w3.org/2000/svg"
   xmlns:sodipodi="http://sodipodi.sourceforge.net/DTD/sodipodi-0.dtd"
   xmlns:inkscape="http://www.inkscape.org/namespaces/inkscape"
   id="Capa_1"
   enable-background="new 0 0 512 512"
   height="512"
   viewBox="0 0 512 512"
   width="512"
   version="1.1"
   sodipodi:docname="keyboard.svg"
   inkscape:version="0.92.3 (2405546, 2018-03-11)">
  <metadata
     id="metadata35">
    <rdf:RDF>
      <cc:Work
         rdf:about="">
        <dc:format>image/svg+xml</dc:format>
        <dc:type
           rdf:resource="http://purl.org/dc/dcmitype/StillImage" />
      </cc:Work>
    </rdf:RDF>
  </metadata>
  <defs
     id="defs33" />
  <sodipodi:namedview
     pagecolor="#ffffff"
     bordercolor="#666666"
     borderopacity="1"
     objecttolerance="10"
     gridtolerance="10"
     guidetolerance="10"
     inkscape:pageopacity="0"
     inkscape:pageshadow="2"
     inkscape:window-width="757"
     inkscape:window-height="480"
     id="namedview31"
     showgrid="false"
     inkscape:zoom="0.4609375"
     inkscape:cx="256"
     inkscape:cy="256"
     inkscape:window-x="67"
     inkscape:window-y="27"
     inkscape:window-maximized="0"
     inkscape:current-layer="Capa_1" />
  <g
     id="g28"
     style="fill:#ffffff">
    <path
       d="m482 201h-181.732c17.597-18.112 34.732-44.991 34.732-81 0-35.445 8.214-46.562 15.371-52.287 10.99-8.792 31.231-12.713 65.629-12.713 8.284 0 15-6.716 15-15s-6.716-15-15-15c-42.803 0-67.247 5.588-84.371 19.287-23.602 18.882-26.629 50.381-26.629 75.713 0 46.583-41.523 74.289-52.895 81h-222.105c-16.542 0-30 13.458-30 30v226c0 16.542 13.458 30 30 30h452c16.542 0 30-13.458 30-30v-226c0-16.542-13.458-30-30-30zm0 256h-452v-226h452c.019 231.146.1 226 0 226z"
       id="path2"
       style="fill:#ffffff" />
    <path
       d="m96 393h-16c-8.284 0-15 6.716-15 15s6.716 15 15 15h16c8.284 0 15-6.716 15-15s-6.716-15-15-15z"
       id="path4"
       style="fill:#ffffff" />
    <path
       d="m151 344c0-8.284-6.716-15-15-15h-16c-8.284 0-15 6.716-15 15s6.716 15 15 15h16c8.284 0 15-6.716 15-15z"
       id="path6"
       style="fill:#ffffff" />
    <path
       d="m185 344c0 8.284 6.716 15 15 15h16c8.284 0 15-6.716 15-15s-6.716-15-15-15h-16c-8.284 0-15 6.716-15 15z"
       id="path8"
       style="fill:#ffffff" />
    <path
       d="m265 344c0 8.284 6.716 15 15 15h16c8.284 0 15-6.716 15-15s-6.716-15-15-15h-16c-8.284 0-15 6.716-15 15z"
       id="path10"
       style="fill:#ffffff" />
    <path
       d="m376 329h-16c-8.284 0-15 6.716-15 15s6.716 15 15 15h16c8.284 0 15-6.716 15-15s-6.716-15-15-15z"
       id="path12"
       style="fill:#ffffff" />
    <path
       d="m431 280c0-8.284-6.716-15-15-15h-16c-8.284 0-15 6.716-15 15s6.716 15 15 15h16c8.284 0 15-6.716 15-15z"
       id="path14"
       style="fill:#ffffff" />
    <path
       d="m320 295h16c8.284 0 15-6.716 15-15s-6.716-15-15-15h-16c-8.284 0-15 6.716-15 15s6.716 15 15 15z"
       id="path16"
       style="fill:#ffffff" />
    <path
       d="m240 295h16c8.284 0 15-6.716 15-15s-6.716-15-15-15h-16c-8.284 0-15 6.716-15 15s6.716 15 15 15z"
       id="path18"
       style="fill:#ffffff" />
    <path
       d="m160 295h16c8.284 0 15-6.716 15-15s-6.716-15-15-15h-16c-8.284 0-15 6.716-15 15s6.716 15 15 15z"
       id="path20"
       style="fill:#ffffff" />
    <path
       d="m80 295h16c8.284 0 15-6.716 15-15s-6.716-15-15-15h-16c-8.284 0-15 6.716-15 15s6.716 15 15 15z"
       id="path22"
       style="fill:#ffffff" />
    <path
       d="m432 393h-16c-8.284 0-15 6.716-15 15s6.716 15 15 15h16c8.284 0 15-6.716 15-15s-6.716-15-15-15z"
       id="path24"
       style="fill:#ffffff" />
    <path
       d="m352 393h-192c-8.284 0-15 6.716-15 15s6.716 15 15 15h192c8.284 0 15-6.716 15-15s-6.716-15-15-15z"
       id="path26"
       style="fill:#ffffff" />
  </g>
</svg>
