<?xml version="1.0" encoding="UTF-8" standalone="no"?>
<!-- Generator: Adobe Illustrator 19.0.0, SVG Export Plug-In . SVG Version: 6.00 Build 0)  -->

<svg
   xmlns:dc="http://purl.org/dc/elements/1.1/"
   xmlns:cc="http://creativecommons.org/ns#"
   xmlns:rdf="http://www.w3.org/1999/02/22-rdf-syntax-ns#"
   xmlns:svg="http://www.w3.org/2000/svg"
   xmlns="http://www.w3.org/2000/svg"
   xmlns:sodipodi="http://sodipodi.sourceforge.net/DTD/sodipodi-0.dtd"
   xmlns:inkscape="http://www.inkscape.org/namespaces/inkscape"
   version="1.1"
   id="Layer_1"
   x="0px"
   y="0px"
   viewBox="0 0 512 512"
   style="enable-background:new 0 0 512 512;"
   xml:space="preserve"
   sodipodi:docname="text.svg"
   inkscape:version="0.92.5 (2060ec1f9f, 2020-04-08)"><metadata
   id="metadata49"><rdf:RDF><cc:Work
       rdf:about=""><dc:format>image/svg+xml</dc:format><dc:type
         rdf:resource="http://purl.org/dc/dcmitype/StillImage" /><dc:title></dc:title></cc:Work></rdf:RDF></metadata><defs
   id="defs47" /><sodipodi:namedview
   pagecolor="#ffffff"
   bordercolor="#666666"
   borderopacity="1"
   objecttolerance="10"
   gridtolerance="10"
   guidetolerance="10"
   inkscape:pageopacity="0"
   inkscape:pageshadow="2"
   inkscape:window-width="1848"
   inkscape:window-height="1025"
   id="namedview45"
   showgrid="false"
   inkscape:zoom="0.4609375"
   inkscape:cx="380.74576"
   inkscape:cy="256"
   inkscape:window-x="72"
   inkscape:window-y="27"
   inkscape:window-maximized="1"
   inkscape:current-layer="Layer_1" />
<g
   id="g12"
   style="fill:#ffffff"
   inkscape:export-filename="/home/dobm/Documents/Projects/Suki_ROV/Control pictures/text.svg.png"
   inkscape:export-xdpi="144.89999"
   inkscape:export-ydpi="144.89999">
	<path
   style="fill:#ffffff"
   d="M23.273,93.091h465.455c12.853,0,23.273-10.42,23.273-23.273s-10.42-23.273-23.273-23.273H23.273   C10.42,46.545,0,56.965,0,69.818S10.42,93.091,23.273,93.091z"
   id="path2" />
	<path
   style="fill:#ffffff"
   d="M23.273,186.182h341.333c12.853,0,23.273-10.42,23.273-23.273c0-12.853-10.42-23.273-23.273-23.273   H23.273C10.42,139.636,0,150.056,0,162.909C0,175.762,10.42,186.182,23.273,186.182z"
   id="path4" />
	<path
   style="fill:#ffffff"
   d="M23.273,279.273h465.455C501.58,279.273,512,268.853,512,256c0-12.853-10.42-23.273-23.273-23.273   H23.273C10.42,232.727,0,243.147,0,256C0,268.853,10.42,279.273,23.273,279.273z"
   id="path6" />
	<path
   style="fill:#ffffff"
   d="M23.273,465.455h465.455c12.853,0,23.273-10.42,23.273-23.273c0-12.853-10.42-23.273-23.273-23.273   H23.273C10.42,418.909,0,429.329,0,442.182C0,455.035,10.42,465.455,23.273,465.455z"
   id="path8" />
	<path
   style="fill:#ffffff"
   d="M23.273,372.364h341.333c12.853,0,23.273-10.42,23.273-23.273c0-12.853-10.42-23.273-23.273-23.273   H23.273C10.42,325.818,0,336.238,0,349.091C0,361.944,10.42,372.364,23.273,372.364z"
   id="path10" />
</g>
<g
   id="g14">
</g>
<g
   id="g16">
</g>
<g
   id="g18">
</g>
<g
   id="g20">
</g>
<g
   id="g22">
</g>
<g
   id="g24">
</g>
<g
   id="g26">
</g>
<g
   id="g28">
</g>
<g
   id="g30">
</g>
<g
   id="g32">
</g>
<g
   id="g34">
</g>
<g
   id="g36">
</g>
<g
   id="g38">
</g>
<g
   id="g40">
</g>
<g
   id="g42">
</g>
</svg>